Coordinates
version=1
nRows=38
nColumns=12
inDegrees=yes

Units are S.I. units (second, meters, Newtons, ...)
Angles are in degrees

endheader
time	SC_y	SC_z	SC_x	AC_y	AC_z	AC_x	GH_y	GH_z	GH_yy	EL_x	PS_y
       0.0              -14.82          15.95          15.91          48.59           9.32         -17.86          59.03          27.59          133.3           13.5          60.08
   0.03387              -14.82          15.95          15.91          48.59          9.316         -17.86          58.99          27.59          133.3          13.51          60.09
   0.06774              -14.83          15.95          15.91          48.59          9.311         -17.85          58.96          27.59          133.3          13.51          60.11
    0.1016              -14.84          15.95           15.9          48.59          9.306         -17.85          58.92          27.58          133.2          13.51          60.12
    0.1355              -14.84          15.95           15.9          48.58          9.301         -17.85          58.88          27.58          133.2          13.52          60.13
    0.1694              -14.85          15.96           15.9          48.58          9.296         -17.85          58.83          27.58          133.1          13.52          60.14
    0.2032              -14.86          15.96          15.89          48.58           9.29         -17.84          58.79          27.58          133.1          13.52          60.16
    0.2371              -14.87          15.96          15.89          48.57          9.284         -17.84          58.74          27.58          133.0          13.53          60.17
     0.271              -14.88          15.97          15.89          48.57          9.278         -17.84          58.68          27.58          132.9          13.53          60.19
    0.3048              -14.89          15.97          15.88          48.57          9.271         -17.83          58.63          27.58          132.9          13.53           60.2
    0.3387               -14.9          15.97          15.88          48.56          9.263         -17.83          58.57          27.58          132.8          13.54          60.22
    0.3726              -14.91          15.98          15.88          48.56          9.255         -17.83           58.5          27.58          132.7          13.54          60.24
    0.4064              -14.92          15.98          15.87          48.55          9.247         -17.82          58.43          27.58          132.7          13.55          60.26
    0.4403              -14.93          15.98          15.87          48.55          9.237         -17.82          58.35          27.57          132.6          13.56          60.29
    0.4742              -14.95          15.99          15.86          48.54          9.227         -17.81          58.27          27.57          132.5          13.56          60.31
    0.5081              -14.96          15.99          15.86          48.54          9.216         -17.81          58.18          27.57          132.4          13.57          60.34
    0.5419              -14.98           16.0          15.85          48.53          9.204          -17.8          58.08          27.57          132.3          13.58          60.37
    0.5758               -15.0          16.01          15.84          48.52          9.191          -17.8          57.97          27.57          132.1          13.58           60.4
    0.6097              -15.02          16.01          15.84          48.51          9.177         -17.79          57.86          27.57          132.0          13.59          60.44
    0.6435              -15.04          16.02          15.83           48.5          9.161         -17.78          57.73          27.56          131.9           13.6          60.47
    0.6774              -15.06          16.03          15.82           48.5          9.144         -17.77          57.59          27.56          131.7          13.61          60.52
    0.7113              -15.09          16.04          15.81          48.48          9.125         -17.76          57.43          27.56          131.5          13.63          60.56
    0.7451              -15.12          16.05           15.8          48.47          9.105         -17.75          57.26          27.55          131.3          13.64          60.61
     0.779              -15.15          16.06          15.79          48.46          9.082         -17.74          57.07          27.55          131.1          13.65          60.67
    0.8129              -15.18          16.07          15.78          48.45          9.056         -17.73          56.86          27.55          130.9          13.67          60.73
    0.8468              -15.22          16.08          15.76          48.43          9.027         -17.72          56.63          27.54          130.6          13.69           60.8
    0.8806              -15.27           16.1          15.75          48.41          8.995          -17.7          56.37          27.54          130.3          13.71          60.88
    0.9145              -15.32          16.11          15.73          48.39          8.959         -17.69          56.07          27.53          130.0          13.73          60.97
    0.9484              -15.38          16.13          15.71          48.37          8.919         -17.67          55.74          27.53          129.6          13.75          61.07
    0.9822              -15.44          16.15          15.68          48.34          8.872         -17.64          55.36          27.52          129.2          13.78          61.18
     1.016              -15.51          16.18          15.66          48.31           8.82         -17.62          54.93          27.51          128.7          13.82          61.31
      1.05               -15.6          16.21          15.63          48.28          8.759         -17.59          54.43           27.5          128.2          13.85          61.46
     1.084              -15.69          16.24          15.59          48.24          8.689         -17.56          53.86          27.49          127.5           13.9          61.63
     1.118              -15.81          16.28          15.55          48.19          8.608         -17.52          53.19          27.48          126.8          13.95          61.83
     1.152              -15.94          16.32           15.5          48.14          8.513         -17.47          52.42          27.47          125.9          14.01          62.07
     1.185              -16.09          16.37          15.44          48.08          8.401         -17.42           51.5          27.45          124.8          14.08          62.34
     1.219              -16.28          16.44          15.38           48.0          8.268         -17.36          50.41          27.43          123.6          14.16          62.67
     1.253               -16.5          16.51           15.3          47.91          8.109         -17.28           49.1          27.41          122.1          14.26          63.06
